Coordinates
version=1
nRows=11
nColumns=36
inDegrees=yes

Units are S.I. units (second, meters, Newtons, ...)
Angles are in degrees.

endheader
time	pelvis_tilt	pelvis_list	pelvis_rotation	pelvis_tx	pelvis_ty	pelvis_tz	hip_flexion_r	hip_adduction_r	hip_rotation_r	knee_angle_r	ankle_angle_r	subtalar_angle_r	hip_flexion_l	hip_adduction_l	hip_rotation_l	knee_angle_l	ankle_angle_l	subtalar_angle_l	lumbar_extension	lumbar_bending	lumbar_rotation	arm_flex_r	arm_add_r	arm_rot_r	elbow_flex_r	pro_sup_r	wrist_flex_r	wrist_dev_r	arm_flex_l	arm_add_l	arm_rot_l	elbow_flex_l	pro_sup_l	wrist_flex_l	wrist_dev_l
      1.68000000	      0.95047778	      3.67528888	      7.46182624	     -0.14736978	      0.89824047	     -0.23167953	     27.94736856	     -2.83408554	    -10.67602679	    -15.80089411	      2.85371431	      1.29207826	    -16.37675730	      5.53307873	      7.52837887	    -16.35430111	     15.66674588	      8.66682153	     -8.09775117	     -2.34073935	     -8.79588668	     -8.59731898	    -15.97414343	     10.09314324	     19.48562845	     86.51662706	      0.00000000	      0.00000000	      4.40142810	    -19.83757155	     15.06200641	     32.02772697	     86.51662706	      0.00000000	      0.00000000
      1.69000000	      0.87656082	      3.47066490	      7.46930466	     -0.13306275	      0.89690181	     -0.23173726	     27.85359593	     -2.45906050	    -10.27153380	    -16.93535583	      1.80147026	     -0.41080029	    -16.65758512	      5.15263581	      7.07266036	    -17.30354514	     15.22341145	      9.46579246	     -7.73944077	     -2.04141786	     -8.81640703	     -8.69697566	    -16.05736097	     10.18444891	     19.52272512	     86.51662706	      0.00000000	      0.00000000	      3.99578834	    -19.63285485	     14.99236754	     31.78436889	     86.51662706	      0.00000000	      0.00000000
      1.70000000	      0.77341658	      3.16917210	      7.43925424	     -0.11860786	      0.89557681	     -0.23170720	     27.78830741	     -1.96524291	     -9.86051793	    -18.00435267	      0.46689688	     -2.10144913	    -16.79434968	      4.68296223	      6.55794692	    -18.41092968	     14.62642828	     10.23376340	     -7.31369219	     -1.63382982	     -8.76995588	     -8.81569289	    -16.16389477	     10.25271021	     19.58876410	     86.51662706	      0.00000000	      0.00000000	      3.55040325	    -19.38899351	     14.92468837	     31.48958190	     86.51662706	      0.00000000	      0.00000000
      1.71000000	      0.66194108	      2.75149977	      7.36187345	     -0.10408712	      0.89445812	     -0.23152880	     27.77957545	     -1.35279627	     -9.44661053	    -19.02875844	     -1.05701155	     -3.69033891	    -16.77785470	      4.11211433	      5.98623179	    -19.69995738	     13.81714298	     10.94296618	     -6.84954451	     -1.09777142	     -8.64776534	     -8.93580017	    -16.29619057	     10.29715703	     19.67895691	     86.51662706	      0.00000000	      0.00000000	      3.08218062	    -19.10185207	     14.86119040	     31.13877694	     86.51662706	      0.00000000	      0.00000000
      1.72000000	      0.55334201	      2.20942899	      7.23377844	     -0.08961435	      0.89375891	     -0.23120842	     27.82518239	     -0.62563555	     -9.02200926	    -20.06174551	     -2.63582767	     -5.11244306	    -16.60063344	      3.43972818	      5.36066795	    -21.18937789	     12.72575878	     11.57511679	     -6.37487947	     -0.42662405	     -8.45055321	     -9.03998597	    -16.45633602	     10.31791071	     19.79054982	     86.51662706	      0.00000000	      0.00000000	      2.60167682	    -18.77138956	     14.80461007	     30.73028862	     86.51662706	      0.00000000	      0.00000000
      1.73000000	      0.45076624	      1.55336854	      7.05778302	     -0.07524675	      0.89355548	     -0.23083201	     27.89696198	      0.20909634	     -8.57803795	    -21.15026425	     -4.11680353	     -6.32894673	    -16.25802182	      2.67920621	      4.68829292	    -22.89065026	     11.28310968	     12.12176333	     -5.91185458	      0.36753970	     -8.18798672	     -9.11448757	    -16.64472385	     10.31559536	     19.92367329	     86.51662706	      0.00000000	      0.00000000	      2.11320813	    -18.40295844	     14.75893025	     30.26566870	     86.51662706	      0.00000000	      0.00000000
      1.74000000	      0.35790590	      0.81178687	      6.83979099	     -0.06092918	      0.89372617	     -0.23047284	     27.95711590	      1.13638451	     -8.11447937	    -22.30019373	     -5.35570296	     -7.32517359	    -15.74914637	      1.85344795	      3.98384169	    -24.80675615	      9.43678247	     12.58189962	     -5.47606968	      1.25443115	     -7.87610392	     -9.15060395	    -16.85879031	     10.29100629	     20.08168539	     86.51662706	      0.00000000	      0.00000000	      1.61736700	    -18.00722594	     14.72999279	     29.74939562	     86.51662706	      0.00000000	      0.00000000
      1.75000000	      0.28045504	      0.02347975	      6.58636297	     -0.04659208	      0.89405157	     -0.23011332	     27.96854026	      2.13050149	     -7.64306321	    -23.46837269	     -6.24075605	     -8.10563852	    -15.07610145	      0.98723941	      3.27333509	    -26.93213570	      7.16888847	     12.95713613	     -5.07892241	      2.19207195	     -7.53384872	     -9.14443558	    -17.09247803	     10.24495398	     20.27084222	     86.51662706	      0.00000000	      0.00000000	      1.11492714	    -17.59853829	     14.72585067	     29.18805264	     86.51662706	      0.00000000	      0.00000000
      1.76000000	      0.22079670	     -0.77206190	      6.30646253	     -0.03227570	      0.89438037	     -0.22968662	     27.89641749	      3.15902324	     -7.18440385	    -24.58252468	     -6.70897938	     -8.68752303	    -14.24235612	      0.10151306	      2.59510090	    -29.25406810	      4.51161339	     13.24559905	     -4.73089421	      3.13693760	     -7.18002647	     -9.09556215	    -17.33685937	     10.17833926	     20.49927541	     86.51662706	      0.00000000	      0.00000000	      0.61059133	    -17.19217911	     14.75674951	     28.58915638	     86.51662706	      0.00000000	      0.00000000
      1.77000000	      0.17649297	     -1.54333129	      6.01595707	     -0.01812186	      0.89470661	     -0.22916305	     27.70995062	      4.18946175	     -6.76124744	    -25.57058019	     -6.75200122	     -9.09409142	    -13.25238746	     -0.78743069	      1.99623494	    -31.75538380	      1.55609813	     13.43644978	     -4.44330954	      4.05350465	     -6.83143268	     -9.00565004	    -17.58186889	     10.09241700	     20.77544593	     86.51662706	      0.00000000	      0.00000000	      0.11511558	    -16.80151126	     14.83465609	     27.95991627	     86.51662706	      0.00000000	      0.00000000
      1.78000000	      0.14496713	     -2.27243625	      5.73976043	     -0.00427672	      0.89511505	     -0.22856922	     27.38691256	      5.19242797	     -6.39265156	    -26.38188850	     -6.41091959	     -9.34942039	    -12.11250921	     -1.66478791	      1.52453339	    -34.41696698	     -1.54935537	     13.50722685	     -4.22753800	      4.91943831	     -6.50209628	     -8.87766330	    -17.81856923	      9.98911863	     21.10641476	     86.51662706	      0.00000000	      0.00000000	     -0.35500401	    -16.43603643	     14.97229531	     27.30624680	     86.51662706	      0.00000000	      0.00000000
